# xmcd
#
# Track frame offsets:
#	187
#	21300
#	41600
#	60325
#	80175
#	101700
#	122100
#	142325
#
# Disc length: 2147 seconds
# Revision: 0
# Processed by: cddbd v1.5.2PL0 Copyright (c) Steve Scherf et al.
# Submitted via: dBpowerAMP V12.0
#
DISCID=73086108
DTITLE=中森明菜 - 中森明菜 ~ CD '87 [dBP-LITE02-1-FLAC@]
DYEAR=1987
DGENRE=Japanese Pop
TTITLE0=LA BOHEME
TTITLE1=最後のカルメン
TTITLE2=TANGO NOIR
TTITLE3=DESIRE -情熱-
TTITLE4=危ないMON AMOUR
TTITLE5=MILONGUITA
TTITLE6=ジプシー・クイーン
TTITLE7=Fin
EXTD=
EXTT0=
EXTT1=
EXTT2=
EXTT3=
EXTT4=
EXTT5=
EXTT6=
EXTT7=
PLAYORDER=
